<svg width="20" height="20" viewBox="0 0 20 20" fill="none" xmlns="http://www.w3.org/2000/svg">
<path d="M0 3.75C0 2.36929 1.11929 1.25 2.5 1.25H19.375C19.7202 1.25 20 1.52982 20 1.875C20 2.22018 19.7202 2.5 19.375 2.5H18.75V5C19.4404 5 20 5.55964 20 6.25V16.875C20 17.9105 19.1605 18.75 18.125 18.75H3.125C1.39911 18.75 0 17.3509 0 15.625V3.75ZM1.25 5.91554V15.625C1.25 16.6605 2.08947 17.5 3.125 17.5H18.125C18.4702 17.5 18.75 17.2202 18.75 16.875V6.25H2.5C2.04464 6.25 1.61772 6.12826 1.25 5.91554ZM1.25 3.75C1.25 4.44036 1.80964 5 2.5 5H17.5V2.5H2.5C1.80964 2.5 1.25 3.05964 1.25 3.75Z" fill="#4A637A"/>
</svg>
