<svg width="20" height="24" viewBox="0 0 20 24" fill="none" xmlns="http://www.w3.org/2000/svg">
<path d="M5.83333 10.5C5.3731 10.5 5 10.8358 5 11.25C5 11.6642 5.3731 12 5.83333 12H14.1667C14.6269 12 15 11.6642 15 11.25C15 10.8358 14.6269 10.5 14.1667 10.5H5.83333Z" fill="#4A637A"/>
<path d="M5 14.25C5 13.8358 5.3731 13.5 5.83333 13.5H14.1667C14.6269 13.5 15 13.8358 15 14.25C15 14.6642 14.6269 15 14.1667 15H5.83333C5.3731 15 5 14.6642 5 14.25Z" fill="#4A637A"/>
<path d="M5 17.25C5 16.8358 5.3731 16.5 5.83333 16.5H9.16667C9.6269 16.5 10 16.8358 10 17.25C10 17.6642 9.6269 18 9.16667 18H5.83333C5.3731 18 5 17.6642 5 17.25Z" fill="#4A637A"/>
<path d="M12.5 0H3.33333C1.49238 0 0 1.34314 0 3V21C0 22.6569 1.49239 24 3.33333 24H16.6667C18.5076 24 20 22.6569 20 21V6.75L12.5 0ZM12.5 1.5V4.5C12.5 5.74264 13.6193 6.75 15 6.75H18.3333V21C18.3333 21.8284 17.5871 22.5 16.6667 22.5H3.33333C2.41286 22.5 1.66667 21.8284 1.66667 21V3C1.66667 2.17157 2.41286 1.5 3.33333 1.5H12.5Z" fill="#4A637A"/>
</svg>
