<svg width="20" height="20" viewBox="0 0 20 20" fill="none" xmlns="http://www.w3.org/2000/svg">
<path d="M4.375 0C4.72018 0 5 0.279822 5 0.625V1.25H15V0.625C15 0.279822 15.2798 0 15.625 0C15.9702 0 16.25 0.279822 16.25 0.625V1.25H17.5C18.8807 1.25 20 2.36929 20 3.75V17.5C20 18.8807 18.8807 20 17.5 20H2.5C1.11929 20 0 18.8807 0 17.5V3.75C0 2.36929 1.11929 1.25 2.5 1.25H3.75V0.625C3.75 0.279822 4.02982 0 4.375 0ZM2.5 2.5C1.80964 2.5 1.25 3.05964 1.25 3.75V5H18.75V3.75C18.75 3.05964 18.1904 2.5 17.5 2.5H2.5ZM18.75 6.25H1.25V17.5C1.25 18.1904 1.80964 18.75 2.5 18.75H17.5C18.1904 18.75 18.75 18.1904 18.75 17.5V6.25Z" fill="#4A637A"/>
</svg>
